<mxfile host="app.diagrams.net" agent="Mozilla/5.0 (Windows NT 10.0; Win64; x64) AppleWebKit/537.36 (KHTML, like Gecko) Chrome/125.0.0.0 Safari/537.36 Edg/125.0.0.0" version="26.1.0">
  <diagram name="第 1 页" id="4KHr8UPVDESOjd5QZlrJ">
    <mxGraphModel dx="1188" dy="664" grid="1" gridSize="10" guides="1" tooltips="1" connect="1" arrows="1" fold="1" page="1" pageScale="1" pageWidth="1169" pageHeight="1654" math="0" shadow="0">
      <root>
        <mxCell id="0" />
        <mxCell id="1" parent="0" />
        <mxCell id="C0d4t9K9KgT_hFdXMAq5-5" value="" style="rounded=0;whiteSpace=wrap;html=1;" vertex="1" parent="1">
          <mxGeometry x="50" y="450" width="20" height="20" as="geometry" />
        </mxCell>
        <mxCell id="C0d4t9K9KgT_hFdXMAq5-6" value="" style="rounded=0;whiteSpace=wrap;html=1;" vertex="1" parent="1">
          <mxGeometry x="50" y="470" width="20" height="20" as="geometry" />
        </mxCell>
        <mxCell id="C0d4t9K9KgT_hFdXMAq5-7" value="" style="rounded=0;whiteSpace=wrap;html=1;" vertex="1" parent="1">
          <mxGeometry x="50" y="490" width="20" height="20" as="geometry" />
        </mxCell>
        <mxCell id="C0d4t9K9KgT_hFdXMAq5-8" value="" style="rounded=0;whiteSpace=wrap;html=1;" vertex="1" parent="1">
          <mxGeometry x="50" y="510" width="20" height="20" as="geometry" />
        </mxCell>
        <mxCell id="C0d4t9K9KgT_hFdXMAq5-9" value="" style="rounded=0;whiteSpace=wrap;html=1;" vertex="1" parent="1">
          <mxGeometry x="50" y="530" width="20" height="20" as="geometry" />
        </mxCell>
        <mxCell id="C0d4t9K9KgT_hFdXMAq5-10" value="&lt;font face=&quot;Times New Roman&quot; style=&quot;font-size: 18px;&quot;&gt;...&lt;/font&gt;" style="text;strokeColor=none;align=center;fillColor=none;html=1;verticalAlign=middle;whiteSpace=wrap;rounded=0;" vertex="1" parent="1">
          <mxGeometry x="30" y="500" width="60" height="30" as="geometry" />
        </mxCell>
        <mxCell id="C0d4t9K9KgT_hFdXMAq5-41" value="" style="group" vertex="1" connectable="0" parent="1">
          <mxGeometry x="110" y="464" width="89.35000000000002" height="94.96000000000004" as="geometry" />
        </mxCell>
        <mxCell id="C0d4t9K9KgT_hFdXMAq5-39" value="" style="whiteSpace=wrap;html=1;aspect=fixed;" vertex="1" parent="C0d4t9K9KgT_hFdXMAq5-41">
          <mxGeometry x="-8" y="-11.39" width="90.39" height="90.39" as="geometry" />
        </mxCell>
        <mxCell id="C0d4t9K9KgT_hFdXMAq5-15" value="" style="group;movable=0;resizable=0;rotatable=0;deletable=0;editable=0;locked=1;connectable=0;" vertex="1" connectable="0" parent="C0d4t9K9KgT_hFdXMAq5-41">
          <mxGeometry x="9.720000000000027" width="68.97" height="94.96000000000001" as="geometry" />
        </mxCell>
        <mxCell id="C0d4t9K9KgT_hFdXMAq5-16" style="edgeStyle=none;shape=connector;rounded=0;orthogonalLoop=1;jettySize=auto;html=1;exitX=1;exitY=1;exitDx=0;exitDy=0;entryX=0;entryY=0;entryDx=0;entryDy=0;strokeColor=default;align=center;verticalAlign=middle;fontFamily=Helvetica;fontSize=11;fontColor=default;labelBackgroundColor=default;startFill=0;endArrow=none;" edge="1" parent="C0d4t9K9KgT_hFdXMAq5-15" source="C0d4t9K9KgT_hFdXMAq5-17" target="C0d4t9K9KgT_hFdXMAq5-23">
          <mxGeometry relative="1" as="geometry" />
        </mxCell>
        <mxCell id="C0d4t9K9KgT_hFdXMAq5-17" value="" style="ellipse;whiteSpace=wrap;html=1;aspect=fixed;movable=1;resizable=1;rotatable=1;deletable=1;editable=1;locked=0;connectable=1;fillColor=#dae8fc;strokeColor=#6c8ebf;" vertex="1" parent="C0d4t9K9KgT_hFdXMAq5-15">
          <mxGeometry x="39.72" width="9.722222222222223" height="9.722222222222223" as="geometry" />
        </mxCell>
        <mxCell id="C0d4t9K9KgT_hFdXMAq5-18" style="edgeStyle=none;shape=connector;rounded=0;orthogonalLoop=1;jettySize=auto;html=1;exitX=0;exitY=1;exitDx=0;exitDy=0;entryX=1;entryY=0;entryDx=0;entryDy=0;strokeColor=default;align=center;verticalAlign=middle;fontFamily=Helvetica;fontSize=11;fontColor=default;labelBackgroundColor=default;startFill=0;endArrow=none;" edge="1" parent="C0d4t9K9KgT_hFdXMAq5-15" source="C0d4t9K9KgT_hFdXMAq5-19" target="C0d4t9K9KgT_hFdXMAq5-28">
          <mxGeometry relative="1" as="geometry" />
        </mxCell>
        <mxCell id="C0d4t9K9KgT_hFdXMAq5-19" value="" style="ellipse;whiteSpace=wrap;html=1;aspect=fixed;movable=1;resizable=1;rotatable=1;deletable=1;editable=1;locked=0;connectable=1;fillColor=#dae8fc;strokeColor=#6c8ebf;" vertex="1" parent="C0d4t9K9KgT_hFdXMAq5-15">
          <mxGeometry x="20.280000000000005" y="24" width="9.722222222222223" height="9.722222222222223" as="geometry" />
        </mxCell>
        <mxCell id="C0d4t9K9KgT_hFdXMAq5-20" style="edgeStyle=none;shape=connector;rounded=0;orthogonalLoop=1;jettySize=auto;html=1;exitX=1;exitY=0;exitDx=0;exitDy=0;entryX=0.5;entryY=1;entryDx=0;entryDy=0;strokeColor=default;align=center;verticalAlign=middle;fontFamily=Helvetica;fontSize=11;fontColor=default;labelBackgroundColor=default;startFill=0;endArrow=none;" edge="1" parent="C0d4t9K9KgT_hFdXMAq5-15" source="C0d4t9K9KgT_hFdXMAq5-21" target="C0d4t9K9KgT_hFdXMAq5-26">
          <mxGeometry relative="1" as="geometry" />
        </mxCell>
        <mxCell id="C0d4t9K9KgT_hFdXMAq5-21" value="" style="ellipse;whiteSpace=wrap;html=1;aspect=fixed;movable=1;resizable=1;rotatable=1;deletable=1;editable=1;locked=0;connectable=1;fillColor=#dae8fc;strokeColor=#6c8ebf;" vertex="1" parent="C0d4t9K9KgT_hFdXMAq5-15">
          <mxGeometry x="30" y="57.72" width="9.722222222222223" height="9.722222222222223" as="geometry" />
        </mxCell>
        <mxCell id="C0d4t9K9KgT_hFdXMAq5-22" style="edgeStyle=none;shape=connector;rounded=0;orthogonalLoop=1;jettySize=auto;html=1;exitX=0;exitY=1;exitDx=0;exitDy=0;entryX=1;entryY=0;entryDx=0;entryDy=0;strokeColor=default;align=center;verticalAlign=middle;fontFamily=Helvetica;fontSize=11;fontColor=default;labelBackgroundColor=default;startFill=0;endArrow=none;" edge="1" parent="C0d4t9K9KgT_hFdXMAq5-15" source="C0d4t9K9KgT_hFdXMAq5-23" target="C0d4t9K9KgT_hFdXMAq5-19">
          <mxGeometry relative="1" as="geometry" />
        </mxCell>
        <mxCell id="C0d4t9K9KgT_hFdXMAq5-23" value="" style="ellipse;whiteSpace=wrap;html=1;aspect=fixed;movable=1;resizable=1;rotatable=1;deletable=1;editable=1;locked=0;connectable=1;fillColor=#dae8fc;strokeColor=#6c8ebf;" vertex="1" parent="C0d4t9K9KgT_hFdXMAq5-15">
          <mxGeometry x="54.72" y="14.28" width="9.722222222222223" height="9.722222222222223" as="geometry" />
        </mxCell>
        <mxCell id="C0d4t9K9KgT_hFdXMAq5-24" style="edgeStyle=orthogonalEdgeStyle;rounded=0;orthogonalLoop=1;jettySize=auto;html=1;exitX=1;exitY=0.5;exitDx=0;exitDy=0;entryX=0;entryY=0.5;entryDx=0;entryDy=0;startArrow=none;startFill=0;jumpStyle=none;curved=1;endArrow=none;" edge="1" parent="C0d4t9K9KgT_hFdXMAq5-15" source="C0d4t9K9KgT_hFdXMAq5-25" target="C0d4t9K9KgT_hFdXMAq5-17">
          <mxGeometry relative="1" as="geometry" />
        </mxCell>
        <mxCell id="C0d4t9K9KgT_hFdXMAq5-25" value="" style="ellipse;whiteSpace=wrap;html=1;aspect=fixed;movable=1;resizable=1;rotatable=1;deletable=1;editable=1;locked=0;connectable=1;fillColor=#dae8fc;strokeColor=#6c8ebf;" vertex="1" parent="C0d4t9K9KgT_hFdXMAq5-15">
          <mxGeometry x="10" width="9.72" height="9.72" as="geometry" />
        </mxCell>
        <mxCell id="C0d4t9K9KgT_hFdXMAq5-26" value="" style="ellipse;whiteSpace=wrap;html=1;aspect=fixed;movable=1;resizable=1;rotatable=1;deletable=1;editable=1;locked=0;connectable=1;fillColor=#dae8fc;strokeColor=#6c8ebf;" vertex="1" parent="C0d4t9K9KgT_hFdXMAq5-15">
          <mxGeometry x="39.72" y="32.28" width="9.722222222222223" height="9.722222222222223" as="geometry" />
        </mxCell>
        <mxCell id="C0d4t9K9KgT_hFdXMAq5-27" style="edgeStyle=none;shape=connector;rounded=0;orthogonalLoop=1;jettySize=auto;html=1;exitX=1;exitY=0.5;exitDx=0;exitDy=0;entryX=0;entryY=1;entryDx=0;entryDy=0;strokeColor=default;align=center;verticalAlign=middle;fontFamily=Helvetica;fontSize=11;fontColor=default;labelBackgroundColor=default;startFill=0;endArrow=none;" edge="1" parent="C0d4t9K9KgT_hFdXMAq5-15" source="C0d4t9K9KgT_hFdXMAq5-28" target="C0d4t9K9KgT_hFdXMAq5-26">
          <mxGeometry relative="1" as="geometry" />
        </mxCell>
        <mxCell id="C0d4t9K9KgT_hFdXMAq5-28" value="" style="ellipse;whiteSpace=wrap;html=1;aspect=fixed;movable=1;resizable=1;rotatable=1;deletable=1;editable=1;locked=0;connectable=1;fillColor=#dae8fc;strokeColor=#6c8ebf;" vertex="1" parent="C0d4t9K9KgT_hFdXMAq5-15">
          <mxGeometry x="10.000000000000002" y="57.72" width="9.722222222222223" height="9.722222222222223" as="geometry" />
        </mxCell>
        <mxCell id="C0d4t9K9KgT_hFdXMAq5-29" style="rounded=0;orthogonalLoop=1;jettySize=auto;html=1;exitX=1;exitY=1;exitDx=0;exitDy=0;entryX=0;entryY=0.5;entryDx=0;entryDy=0;endArrow=none;startFill=0;" edge="1" parent="C0d4t9K9KgT_hFdXMAq5-15" source="C0d4t9K9KgT_hFdXMAq5-30" target="C0d4t9K9KgT_hFdXMAq5-28">
          <mxGeometry relative="1" as="geometry" />
        </mxCell>
        <mxCell id="C0d4t9K9KgT_hFdXMAq5-30" value="" style="ellipse;whiteSpace=wrap;html=1;aspect=fixed;movable=1;resizable=1;rotatable=1;deletable=1;editable=1;locked=0;connectable=1;fillColor=#dae8fc;strokeColor=#6c8ebf;" vertex="1" parent="C0d4t9K9KgT_hFdXMAq5-15">
          <mxGeometry x="-9.719999999999999" y="48" width="9.722222222222223" height="9.722222222222223" as="geometry" />
        </mxCell>
        <mxCell id="C0d4t9K9KgT_hFdXMAq5-31" style="rounded=0;orthogonalLoop=1;jettySize=auto;html=1;exitX=1;exitY=0;exitDx=0;exitDy=0;entryX=0;entryY=1;entryDx=0;entryDy=0;endArrow=none;startFill=0;" edge="1" parent="C0d4t9K9KgT_hFdXMAq5-41" source="C0d4t9K9KgT_hFdXMAq5-34" target="C0d4t9K9KgT_hFdXMAq5-25">
          <mxGeometry relative="1" as="geometry" />
        </mxCell>
        <mxCell id="C0d4t9K9KgT_hFdXMAq5-32" style="edgeStyle=orthogonalEdgeStyle;rounded=0;orthogonalLoop=1;jettySize=auto;html=1;exitX=0.5;exitY=1;exitDx=0;exitDy=0;entryX=0.5;entryY=0;entryDx=0;entryDy=0;endArrow=none;startFill=0;" edge="1" parent="C0d4t9K9KgT_hFdXMAq5-41" source="C0d4t9K9KgT_hFdXMAq5-34" target="C0d4t9K9KgT_hFdXMAq5-30">
          <mxGeometry relative="1" as="geometry" />
        </mxCell>
        <mxCell id="C0d4t9K9KgT_hFdXMAq5-33" style="edgeStyle=none;shape=connector;rounded=0;orthogonalLoop=1;jettySize=auto;html=1;exitX=1;exitY=0.5;exitDx=0;exitDy=0;entryX=0;entryY=0.5;entryDx=0;entryDy=0;strokeColor=default;align=center;verticalAlign=middle;fontFamily=Helvetica;fontSize=11;fontColor=default;labelBackgroundColor=default;startFill=0;endArrow=none;" edge="1" parent="C0d4t9K9KgT_hFdXMAq5-41" source="C0d4t9K9KgT_hFdXMAq5-34" target="C0d4t9K9KgT_hFdXMAq5-19">
          <mxGeometry relative="1" as="geometry" />
        </mxCell>
        <mxCell id="C0d4t9K9KgT_hFdXMAq5-34" value="" style="ellipse;whiteSpace=wrap;html=1;aspect=fixed;movable=1;resizable=1;rotatable=1;deletable=1;editable=1;locked=0;connectable=1;fillColor=#dae8fc;strokeColor=#6c8ebf;" vertex="1" parent="C0d4t9K9KgT_hFdXMAq5-41">
          <mxGeometry y="24.41999999999996" width="9.722222222222223" height="9.722222222222223" as="geometry" />
        </mxCell>
        <mxCell id="C0d4t9K9KgT_hFdXMAq5-35" style="edgeStyle=none;shape=connector;rounded=0;orthogonalLoop=1;jettySize=auto;html=1;exitX=0.5;exitY=0;exitDx=0;exitDy=0;entryX=0.5;entryY=1;entryDx=0;entryDy=0;strokeColor=default;align=center;verticalAlign=middle;fontFamily=Helvetica;fontSize=11;fontColor=default;labelBackgroundColor=default;startFill=0;endArrow=none;" edge="1" parent="C0d4t9K9KgT_hFdXMAq5-41" source="C0d4t9K9KgT_hFdXMAq5-36" target="C0d4t9K9KgT_hFdXMAq5-23">
          <mxGeometry relative="1" as="geometry" />
        </mxCell>
        <mxCell id="C0d4t9K9KgT_hFdXMAq5-36" value="" style="ellipse;whiteSpace=wrap;html=1;aspect=fixed;movable=1;resizable=1;rotatable=1;deletable=1;editable=1;locked=0;connectable=1;fillColor=#dae8fc;strokeColor=#6c8ebf;" vertex="1" parent="C0d4t9K9KgT_hFdXMAq5-41">
          <mxGeometry x="65" y="40.139999999999986" width="9.722222222222223" height="9.722222222222223" as="geometry" />
        </mxCell>
        <mxCell id="C0d4t9K9KgT_hFdXMAq5-37" style="edgeStyle=none;shape=connector;rounded=0;orthogonalLoop=1;jettySize=auto;html=1;exitX=1;exitY=0.5;exitDx=0;exitDy=0;entryX=0;entryY=1;entryDx=0;entryDy=0;strokeColor=default;align=center;verticalAlign=middle;fontFamily=Helvetica;fontSize=11;fontColor=default;labelBackgroundColor=default;startFill=0;endArrow=none;" edge="1" parent="C0d4t9K9KgT_hFdXMAq5-41" source="C0d4t9K9KgT_hFdXMAq5-21" target="C0d4t9K9KgT_hFdXMAq5-36">
          <mxGeometry relative="1" as="geometry" />
        </mxCell>
        <mxCell id="C0d4t9K9KgT_hFdXMAq5-38" style="edgeStyle=none;shape=connector;rounded=0;orthogonalLoop=1;jettySize=auto;html=1;exitX=1;exitY=0.5;exitDx=0;exitDy=0;entryX=0;entryY=0;entryDx=0;entryDy=0;strokeColor=default;align=center;verticalAlign=middle;fontFamily=Helvetica;fontSize=11;fontColor=default;labelBackgroundColor=default;startFill=0;endArrow=none;" edge="1" parent="C0d4t9K9KgT_hFdXMAq5-41" source="C0d4t9K9KgT_hFdXMAq5-26" target="C0d4t9K9KgT_hFdXMAq5-36">
          <mxGeometry relative="1" as="geometry" />
        </mxCell>
        <mxCell id="C0d4t9K9KgT_hFdXMAq5-42" value="" style="rounded=0;whiteSpace=wrap;html=1;" vertex="1" parent="1">
          <mxGeometry x="220" y="490" width="90" height="33.5" as="geometry" />
        </mxCell>
        <mxCell id="C0d4t9K9KgT_hFdXMAq5-43" value="" style="rounded=0;whiteSpace=wrap;html=1;" vertex="1" parent="1">
          <mxGeometry x="337" y="450" width="20" height="20" as="geometry" />
        </mxCell>
        <mxCell id="C0d4t9K9KgT_hFdXMAq5-44" value="" style="rounded=0;whiteSpace=wrap;html=1;" vertex="1" parent="1">
          <mxGeometry x="337" y="470" width="20" height="20" as="geometry" />
        </mxCell>
        <mxCell id="C0d4t9K9KgT_hFdXMAq5-45" value="" style="rounded=0;whiteSpace=wrap;html=1;" vertex="1" parent="1">
          <mxGeometry x="337" y="490" width="20" height="20" as="geometry" />
        </mxCell>
        <mxCell id="C0d4t9K9KgT_hFdXMAq5-46" value="" style="rounded=0;whiteSpace=wrap;html=1;" vertex="1" parent="1">
          <mxGeometry x="337" y="510" width="20" height="20" as="geometry" />
        </mxCell>
        <mxCell id="C0d4t9K9KgT_hFdXMAq5-47" value="" style="rounded=0;whiteSpace=wrap;html=1;" vertex="1" parent="1">
          <mxGeometry x="337" y="530" width="20" height="20" as="geometry" />
        </mxCell>
        <mxCell id="C0d4t9K9KgT_hFdXMAq5-48" value="&lt;font face=&quot;Times New Roman&quot; style=&quot;font-size: 18px;&quot;&gt;...&lt;/font&gt;" style="text;strokeColor=none;align=center;fillColor=none;html=1;verticalAlign=middle;whiteSpace=wrap;rounded=0;" vertex="1" parent="1">
          <mxGeometry x="317" y="500" width="60" height="30" as="geometry" />
        </mxCell>
        <mxCell id="C0d4t9K9KgT_hFdXMAq5-49" value="" style="rounded=1;whiteSpace=wrap;html=1;" vertex="1" parent="1">
          <mxGeometry x="400" y="290" width="70" height="30" as="geometry" />
        </mxCell>
        <mxCell id="C0d4t9K9KgT_hFdXMAq5-50" value="" style="rounded=1;whiteSpace=wrap;html=1;" vertex="1" parent="1">
          <mxGeometry x="400" y="410" width="70" height="30" as="geometry" />
        </mxCell>
        <mxCell id="C0d4t9K9KgT_hFdXMAq5-51" value="" style="rounded=1;whiteSpace=wrap;html=1;" vertex="1" parent="1">
          <mxGeometry x="400" y="528.96" width="70" height="30" as="geometry" />
        </mxCell>
        <mxCell id="C0d4t9K9KgT_hFdXMAq5-53" value="" style="rounded=0;whiteSpace=wrap;html=1;" vertex="1" parent="1">
          <mxGeometry x="510" y="528.96" width="70" height="30" as="geometry" />
        </mxCell>
        <mxCell id="C0d4t9K9KgT_hFdXMAq5-54" value="" style="rounded=0;whiteSpace=wrap;html=1;" vertex="1" parent="1">
          <mxGeometry x="510" y="410" width="70" height="30" as="geometry" />
        </mxCell>
        <mxCell id="C0d4t9K9KgT_hFdXMAq5-55" value="" style="rounded=0;whiteSpace=wrap;html=1;" vertex="1" parent="1">
          <mxGeometry x="510" y="290" width="70" height="30" as="geometry" />
        </mxCell>
        <mxCell id="C0d4t9K9KgT_hFdXMAq5-147" value="" style="rounded=0;whiteSpace=wrap;html=1;" vertex="1" parent="1">
          <mxGeometry x="639" y="255" width="20" height="20" as="geometry" />
        </mxCell>
        <mxCell id="C0d4t9K9KgT_hFdXMAq5-148" value="" style="rounded=0;whiteSpace=wrap;html=1;" vertex="1" parent="1">
          <mxGeometry x="639" y="275" width="20" height="20" as="geometry" />
        </mxCell>
        <mxCell id="C0d4t9K9KgT_hFdXMAq5-149" value="" style="rounded=0;whiteSpace=wrap;html=1;" vertex="1" parent="1">
          <mxGeometry x="639" y="295" width="20" height="20" as="geometry" />
        </mxCell>
        <mxCell id="C0d4t9K9KgT_hFdXMAq5-150" value="" style="rounded=0;whiteSpace=wrap;html=1;" vertex="1" parent="1">
          <mxGeometry x="639" y="315" width="20" height="20" as="geometry" />
        </mxCell>
        <mxCell id="C0d4t9K9KgT_hFdXMAq5-152" value="" style="rounded=0;whiteSpace=wrap;html=1;" vertex="1" parent="1">
          <mxGeometry x="679" y="255" width="20" height="20" as="geometry" />
        </mxCell>
        <mxCell id="C0d4t9K9KgT_hFdXMAq5-153" value="" style="rounded=0;whiteSpace=wrap;html=1;" vertex="1" parent="1">
          <mxGeometry x="679" y="275" width="20" height="20" as="geometry" />
        </mxCell>
        <mxCell id="C0d4t9K9KgT_hFdXMAq5-154" value="" style="rounded=0;whiteSpace=wrap;html=1;" vertex="1" parent="1">
          <mxGeometry x="679" y="295" width="20" height="20" as="geometry" />
        </mxCell>
        <mxCell id="C0d4t9K9KgT_hFdXMAq5-155" value="" style="rounded=0;whiteSpace=wrap;html=1;" vertex="1" parent="1">
          <mxGeometry x="679" y="315" width="20" height="20" as="geometry" />
        </mxCell>
        <mxCell id="C0d4t9K9KgT_hFdXMAq5-158" value="" style="rounded=0;whiteSpace=wrap;html=1;" vertex="1" parent="1">
          <mxGeometry x="719" y="255" width="20" height="20" as="geometry" />
        </mxCell>
        <mxCell id="C0d4t9K9KgT_hFdXMAq5-159" value="" style="rounded=0;whiteSpace=wrap;html=1;" vertex="1" parent="1">
          <mxGeometry x="719" y="275" width="20" height="20" as="geometry" />
        </mxCell>
        <mxCell id="C0d4t9K9KgT_hFdXMAq5-160" value="" style="rounded=0;whiteSpace=wrap;html=1;" vertex="1" parent="1">
          <mxGeometry x="719" y="295" width="20" height="20" as="geometry" />
        </mxCell>
        <mxCell id="C0d4t9K9KgT_hFdXMAq5-161" value="" style="rounded=0;whiteSpace=wrap;html=1;" vertex="1" parent="1">
          <mxGeometry x="719" y="315" width="20" height="20" as="geometry" />
        </mxCell>
        <mxCell id="C0d4t9K9KgT_hFdXMAq5-126" value="&lt;font face=&quot;Times New Roman&quot; style=&quot;font-size: 18px;&quot;&gt;...&lt;/font&gt;" style="text;strokeColor=none;align=center;fillColor=none;html=1;verticalAlign=middle;whiteSpace=wrap;rounded=0;" vertex="1" parent="1">
          <mxGeometry x="701" y="441.75" width="60" height="30" as="geometry" />
        </mxCell>
        <mxCell id="C0d4t9K9KgT_hFdXMAq5-145" value="&lt;font face=&quot;Times New Roman&quot; style=&quot;font-size: 18px;&quot;&gt;...&lt;/font&gt;" style="text;strokeColor=none;align=center;fillColor=none;html=1;verticalAlign=middle;whiteSpace=wrap;rounded=0;" vertex="1" parent="1">
          <mxGeometry x="699" y="305" width="60" height="30" as="geometry" />
        </mxCell>
        <mxCell id="C0d4t9K9KgT_hFdXMAq5-163" value="" style="ellipse;whiteSpace=wrap;html=1;aspect=fixed;" vertex="1" parent="1">
          <mxGeometry x="780" y="439" width="25" height="25" as="geometry" />
        </mxCell>
        <mxCell id="C0d4t9K9KgT_hFdXMAq5-164" value="" style="rounded=1;whiteSpace=wrap;html=1;" vertex="1" parent="1">
          <mxGeometry x="57" y="305" width="300" height="110" as="geometry" />
        </mxCell>
        <mxCell id="C0d4t9K9KgT_hFdXMAq5-146" value="&lt;font face=&quot;Times New Roman&quot; style=&quot;font-size: 18px;&quot;&gt;...&lt;/font&gt;" style="text;strokeColor=none;align=center;fillColor=none;html=1;verticalAlign=middle;whiteSpace=wrap;rounded=0;" vertex="1" parent="1">
          <mxGeometry x="619" y="305" width="60" height="30" as="geometry" />
        </mxCell>
        <mxCell id="C0d4t9K9KgT_hFdXMAq5-157" value="&lt;font face=&quot;Times New Roman&quot; style=&quot;font-size: 18px;&quot;&gt;...&lt;/font&gt;" style="text;strokeColor=none;align=center;fillColor=none;html=1;verticalAlign=middle;whiteSpace=wrap;rounded=0;" vertex="1" parent="1">
          <mxGeometry x="659" y="305" width="60" height="30" as="geometry" />
        </mxCell>
        <mxCell id="C0d4t9K9KgT_hFdXMAq5-138" value="&lt;font face=&quot;Times New Roman&quot; style=&quot;font-size: 18px;&quot;&gt;...&lt;/font&gt;" style="text;strokeColor=none;align=center;fillColor=none;html=1;verticalAlign=middle;whiteSpace=wrap;rounded=0;movable=1;resizable=1;rotatable=1;deletable=1;editable=1;locked=0;connectable=1;" vertex="1" parent="1">
          <mxGeometry x="700" y="441.75" width="60" height="30" as="geometry" />
        </mxCell>
        <mxCell id="C0d4t9K9KgT_hFdXMAq5-185" value="" style="group" vertex="1" connectable="0" parent="1">
          <mxGeometry x="640" y="390" width="100" height="81.75" as="geometry" />
        </mxCell>
        <mxCell id="C0d4t9K9KgT_hFdXMAq5-128" value="" style="rounded=0;whiteSpace=wrap;html=1;movable=1;resizable=1;rotatable=1;deletable=1;editable=1;locked=0;connectable=1;" vertex="1" parent="C0d4t9K9KgT_hFdXMAq5-185">
          <mxGeometry width="20" height="20" as="geometry" />
        </mxCell>
        <mxCell id="C0d4t9K9KgT_hFdXMAq5-129" value="" style="rounded=0;whiteSpace=wrap;html=1;movable=1;resizable=1;rotatable=1;deletable=1;editable=1;locked=0;connectable=1;" vertex="1" parent="C0d4t9K9KgT_hFdXMAq5-185">
          <mxGeometry y="20" width="20" height="20" as="geometry" />
        </mxCell>
        <mxCell id="C0d4t9K9KgT_hFdXMAq5-130" value="" style="rounded=0;whiteSpace=wrap;html=1;movable=1;resizable=1;rotatable=1;deletable=1;editable=1;locked=0;connectable=1;" vertex="1" parent="C0d4t9K9KgT_hFdXMAq5-185">
          <mxGeometry y="40" width="20" height="20" as="geometry" />
        </mxCell>
        <mxCell id="C0d4t9K9KgT_hFdXMAq5-133" value="" style="rounded=0;whiteSpace=wrap;html=1;movable=1;resizable=1;rotatable=1;deletable=1;editable=1;locked=0;connectable=1;" vertex="1" parent="C0d4t9K9KgT_hFdXMAq5-185">
          <mxGeometry x="40" width="20" height="20" as="geometry" />
        </mxCell>
        <mxCell id="C0d4t9K9KgT_hFdXMAq5-134" value="" style="rounded=0;whiteSpace=wrap;html=1;movable=1;resizable=1;rotatable=1;deletable=1;editable=1;locked=0;connectable=1;" vertex="1" parent="C0d4t9K9KgT_hFdXMAq5-185">
          <mxGeometry x="40" y="20" width="20" height="20" as="geometry" />
        </mxCell>
        <mxCell id="C0d4t9K9KgT_hFdXMAq5-135" value="" style="rounded=0;whiteSpace=wrap;html=1;movable=1;resizable=1;rotatable=1;deletable=1;editable=1;locked=0;connectable=1;" vertex="1" parent="C0d4t9K9KgT_hFdXMAq5-185">
          <mxGeometry x="40" y="40" width="20" height="20" as="geometry" />
        </mxCell>
        <mxCell id="C0d4t9K9KgT_hFdXMAq5-139" value="" style="rounded=0;whiteSpace=wrap;html=1;movable=1;resizable=1;rotatable=1;deletable=1;editable=1;locked=0;connectable=1;" vertex="1" parent="C0d4t9K9KgT_hFdXMAq5-185">
          <mxGeometry x="80" width="20" height="20" as="geometry" />
        </mxCell>
        <mxCell id="C0d4t9K9KgT_hFdXMAq5-140" value="" style="rounded=0;whiteSpace=wrap;html=1;movable=1;resizable=1;rotatable=1;deletable=1;editable=1;locked=0;connectable=1;" vertex="1" parent="C0d4t9K9KgT_hFdXMAq5-185">
          <mxGeometry x="80" y="20" width="20" height="20" as="geometry" />
        </mxCell>
        <mxCell id="C0d4t9K9KgT_hFdXMAq5-141" value="" style="rounded=0;whiteSpace=wrap;html=1;movable=1;resizable=1;rotatable=1;deletable=1;editable=1;locked=0;connectable=1;" vertex="1" parent="C0d4t9K9KgT_hFdXMAq5-185">
          <mxGeometry x="80" y="40" width="20" height="20" as="geometry" />
        </mxCell>
        <mxCell id="C0d4t9K9KgT_hFdXMAq5-131" value="" style="rounded=0;whiteSpace=wrap;html=1;movable=1;resizable=1;rotatable=1;deletable=1;editable=1;locked=0;connectable=1;" vertex="1" parent="C0d4t9K9KgT_hFdXMAq5-185">
          <mxGeometry y="60" width="20" height="20" as="geometry" />
        </mxCell>
        <mxCell id="C0d4t9K9KgT_hFdXMAq5-142" value="" style="rounded=0;whiteSpace=wrap;html=1;movable=1;resizable=1;rotatable=1;deletable=1;editable=1;locked=0;connectable=1;" vertex="1" parent="C0d4t9K9KgT_hFdXMAq5-185">
          <mxGeometry x="80" y="60" width="20" height="20" as="geometry" />
        </mxCell>
        <mxCell id="C0d4t9K9KgT_hFdXMAq5-166" value="" style="rounded=0;whiteSpace=wrap;html=1;movable=1;resizable=1;rotatable=1;deletable=1;editable=1;locked=0;connectable=1;" vertex="1" parent="C0d4t9K9KgT_hFdXMAq5-185">
          <mxGeometry x="40" y="60" width="20" height="20" as="geometry" />
        </mxCell>
        <mxCell id="C0d4t9K9KgT_hFdXMAq5-167" value="&lt;font face=&quot;Times New Roman&quot; style=&quot;font-size: 18px;&quot;&gt;...&lt;/font&gt;" style="text;strokeColor=none;align=center;fillColor=none;html=1;verticalAlign=middle;whiteSpace=wrap;rounded=0;movable=1;resizable=1;rotatable=1;deletable=1;editable=1;locked=0;connectable=1;" vertex="1" parent="C0d4t9K9KgT_hFdXMAq5-185">
          <mxGeometry x="20" y="51.75" width="60" height="30" as="geometry" />
        </mxCell>
        <mxCell id="C0d4t9K9KgT_hFdXMAq5-186" value="&lt;font face=&quot;Times New Roman&quot; style=&quot;font-size: 18px;&quot;&gt;...&lt;/font&gt;" style="text;strokeColor=none;align=center;fillColor=none;html=1;verticalAlign=middle;whiteSpace=wrap;rounded=0;" vertex="1" parent="C0d4t9K9KgT_hFdXMAq5-185">
          <mxGeometry x="-20" y="51.75" width="60" height="30" as="geometry" />
        </mxCell>
        <mxCell id="C0d4t9K9KgT_hFdXMAq5-187" value="&lt;font face=&quot;Times New Roman&quot; style=&quot;font-size: 18px;&quot;&gt;...&lt;/font&gt;" style="text;strokeColor=none;align=center;fillColor=none;html=1;verticalAlign=middle;whiteSpace=wrap;rounded=0;movable=1;resizable=1;rotatable=1;deletable=1;editable=1;locked=0;connectable=1;" vertex="1" parent="1">
          <mxGeometry x="701" y="441.75" width="60" height="30" as="geometry" />
        </mxCell>
        <mxCell id="C0d4t9K9KgT_hFdXMAq5-204" value="" style="group" vertex="1" connectable="0" parent="1">
          <mxGeometry x="640" y="510" width="120" height="81.75" as="geometry" />
        </mxCell>
        <mxCell id="C0d4t9K9KgT_hFdXMAq5-188" value="" style="group" vertex="1" connectable="0" parent="C0d4t9K9KgT_hFdXMAq5-204">
          <mxGeometry width="100" height="81.75" as="geometry" />
        </mxCell>
        <mxCell id="C0d4t9K9KgT_hFdXMAq5-189" value="" style="rounded=0;whiteSpace=wrap;html=1;movable=1;resizable=1;rotatable=1;deletable=1;editable=1;locked=0;connectable=1;" vertex="1" parent="C0d4t9K9KgT_hFdXMAq5-188">
          <mxGeometry width="20" height="20" as="geometry" />
        </mxCell>
        <mxCell id="C0d4t9K9KgT_hFdXMAq5-190" value="" style="rounded=0;whiteSpace=wrap;html=1;movable=1;resizable=1;rotatable=1;deletable=1;editable=1;locked=0;connectable=1;" vertex="1" parent="C0d4t9K9KgT_hFdXMAq5-188">
          <mxGeometry y="20" width="20" height="20" as="geometry" />
        </mxCell>
        <mxCell id="C0d4t9K9KgT_hFdXMAq5-191" value="" style="rounded=0;whiteSpace=wrap;html=1;movable=1;resizable=1;rotatable=1;deletable=1;editable=1;locked=0;connectable=1;" vertex="1" parent="C0d4t9K9KgT_hFdXMAq5-188">
          <mxGeometry y="40" width="20" height="20" as="geometry" />
        </mxCell>
        <mxCell id="C0d4t9K9KgT_hFdXMAq5-192" value="" style="rounded=0;whiteSpace=wrap;html=1;movable=1;resizable=1;rotatable=1;deletable=1;editable=1;locked=0;connectable=1;" vertex="1" parent="C0d4t9K9KgT_hFdXMAq5-188">
          <mxGeometry x="40" width="20" height="20" as="geometry" />
        </mxCell>
        <mxCell id="C0d4t9K9KgT_hFdXMAq5-193" value="" style="rounded=0;whiteSpace=wrap;html=1;movable=1;resizable=1;rotatable=1;deletable=1;editable=1;locked=0;connectable=1;" vertex="1" parent="C0d4t9K9KgT_hFdXMAq5-188">
          <mxGeometry x="40" y="20" width="20" height="20" as="geometry" />
        </mxCell>
        <mxCell id="C0d4t9K9KgT_hFdXMAq5-194" value="" style="rounded=0;whiteSpace=wrap;html=1;movable=1;resizable=1;rotatable=1;deletable=1;editable=1;locked=0;connectable=1;" vertex="1" parent="C0d4t9K9KgT_hFdXMAq5-188">
          <mxGeometry x="40" y="40" width="20" height="20" as="geometry" />
        </mxCell>
        <mxCell id="C0d4t9K9KgT_hFdXMAq5-195" value="" style="rounded=0;whiteSpace=wrap;html=1;movable=1;resizable=1;rotatable=1;deletable=1;editable=1;locked=0;connectable=1;" vertex="1" parent="C0d4t9K9KgT_hFdXMAq5-188">
          <mxGeometry x="80" width="20" height="20" as="geometry" />
        </mxCell>
        <mxCell id="C0d4t9K9KgT_hFdXMAq5-196" value="" style="rounded=0;whiteSpace=wrap;html=1;movable=1;resizable=1;rotatable=1;deletable=1;editable=1;locked=0;connectable=1;" vertex="1" parent="C0d4t9K9KgT_hFdXMAq5-188">
          <mxGeometry x="80" y="20" width="20" height="20" as="geometry" />
        </mxCell>
        <mxCell id="C0d4t9K9KgT_hFdXMAq5-197" value="" style="rounded=0;whiteSpace=wrap;html=1;movable=1;resizable=1;rotatable=1;deletable=1;editable=1;locked=0;connectable=1;" vertex="1" parent="C0d4t9K9KgT_hFdXMAq5-188">
          <mxGeometry x="80" y="40" width="20" height="20" as="geometry" />
        </mxCell>
        <mxCell id="C0d4t9K9KgT_hFdXMAq5-198" value="" style="rounded=0;whiteSpace=wrap;html=1;movable=1;resizable=1;rotatable=1;deletable=1;editable=1;locked=0;connectable=1;" vertex="1" parent="C0d4t9K9KgT_hFdXMAq5-188">
          <mxGeometry y="60" width="20" height="20" as="geometry" />
        </mxCell>
        <mxCell id="C0d4t9K9KgT_hFdXMAq5-199" value="" style="rounded=0;whiteSpace=wrap;html=1;movable=1;resizable=1;rotatable=1;deletable=1;editable=1;locked=0;connectable=1;" vertex="1" parent="C0d4t9K9KgT_hFdXMAq5-188">
          <mxGeometry x="80" y="60" width="20" height="20" as="geometry" />
        </mxCell>
        <mxCell id="C0d4t9K9KgT_hFdXMAq5-200" value="" style="rounded=0;whiteSpace=wrap;html=1;movable=1;resizable=1;rotatable=1;deletable=1;editable=1;locked=0;connectable=1;" vertex="1" parent="C0d4t9K9KgT_hFdXMAq5-188">
          <mxGeometry x="40" y="60" width="20" height="20" as="geometry" />
        </mxCell>
        <mxCell id="C0d4t9K9KgT_hFdXMAq5-201" value="&lt;font face=&quot;Times New Roman&quot; style=&quot;font-size: 18px;&quot;&gt;...&lt;/font&gt;" style="text;strokeColor=none;align=center;fillColor=none;html=1;verticalAlign=middle;whiteSpace=wrap;rounded=0;movable=1;resizable=1;rotatable=1;deletable=1;editable=1;locked=0;connectable=1;" vertex="1" parent="C0d4t9K9KgT_hFdXMAq5-188">
          <mxGeometry x="20" y="51.75" width="60" height="30" as="geometry" />
        </mxCell>
        <mxCell id="C0d4t9K9KgT_hFdXMAq5-202" value="&lt;font face=&quot;Times New Roman&quot; style=&quot;font-size: 18px;&quot;&gt;...&lt;/font&gt;" style="text;strokeColor=none;align=center;fillColor=none;html=1;verticalAlign=middle;whiteSpace=wrap;rounded=0;" vertex="1" parent="C0d4t9K9KgT_hFdXMAq5-188">
          <mxGeometry x="-20" y="50" width="60" height="30" as="geometry" />
        </mxCell>
        <mxCell id="C0d4t9K9KgT_hFdXMAq5-203" value="&lt;font face=&quot;Times New Roman&quot; style=&quot;font-size: 18px;&quot;&gt;...&lt;/font&gt;" style="text;strokeColor=none;align=center;fillColor=none;html=1;verticalAlign=middle;whiteSpace=wrap;rounded=0;" vertex="1" parent="C0d4t9K9KgT_hFdXMAq5-204">
          <mxGeometry x="60" y="50" width="60" height="30" as="geometry" />
        </mxCell>
      </root>
    </mxGraphModel>
  </diagram>
</mxfile>
